<svg width="193" height="50" viewBox="0 0 193 50" fill="none" xmlns="http://www.w3.org/2000/svg">
<g clip-path="url(#clip0_7_2)">
<path d="M22.8723 31.8134H12.0609V11.6721H19.7097V15.8706H23.2503V8.18188H8.28352V35.2097H22.8723V31.8134Z" fill="#2F6D4F"/>
<path d="M52.616 35.2097H56.2053V11.6252H61.7765V8.18188H46.7627V11.6252H52.616V35.2097Z" fill="#2F6D4F"/>
<path d="M78.3417 35.2097L83.2041 8.18188H78.4357L75.0833 31.3419H73.7145L70.315 8.18188H65.7835L70.5989 35.2097H78.3417Z" fill="#2F6D4F"/>
<path d="M31.4199 23.1618H32.9297L39.5388 35.2368H44.2601L37.6981 23.1618H41.8534V8.20898H27.8305V35.2368H31.4651L31.4181 23.1618H31.4199ZM31.4199 11.5583H38.076V19.7655H31.4199V11.5583Z" fill="#2F6D4F"/>
<path d="M102.628 35.3922H117.674V31.6942H106.236V20.8802H117.674V17.4658H106.236V11.5854H117.674V8.17105L102.628 8.21802V35.3922Z" fill="#2F6D4F"/>
<path d="M122.567 20.8332L133.817 27.3296V31.8351H126.175V27.615H122.567V35.3922L137.52 35.3452V23.8682L126.365 17.417V11.7281H134.055V15.9483H137.614V8.21802H122.567V20.8332Z" fill="#2F6D4F"/>
<path d="M145.581 11.7281H156.75L156.83 8.21802H141.784V35.3922H156.452V31.9778H145.581V11.7281Z" fill="#2F6D4F"/>
<path d="M165.555 16.0675L169.529 20.0383H150.284V23.6514H169.876L165.555 27.9709L168.111 30.5253L175.858 22.7861V21.2523L168.111 13.513L165.555 16.0675Z" fill="#2F6D4F"/>
<path d="M185.55 0H94.661V3.64563L90.8891 0.00361311H0V43.6879L5.87857 49.4653L98.3408 50L98.3354 47.2378L100.54 49.4616L193.002 49.9964L192.929 7.1937L185.55 0ZM185.55 40.0712V4.99874L189.315 8.70759L189.375 43.9968L185.55 40.176V40.0712ZM98.2775 13.0867V3.61311H181.934V40.0712H98.3227L98.2775 13.0885V13.0867ZM94.661 13.1174V43.6843H94.7117V44.0004L90.8873 40.1796V5.00235L94.652 8.7112L94.6592 13.1156L94.661 13.1174ZM87.2726 3.61672V40.0748H3.61647V3.61672H87.2726ZM5.24207 43.6879H89.2852L91.9505 46.3508L7.39568 45.8612L5.24207 43.6879ZM99.9013 43.6843H183.944L186.61 46.3471L102.055 45.8576L99.9013 43.6843Z" fill="#2F6D4F"/>
</g>
<defs>
<clipPath id="clip0_7_2">
<rect width="193" height="50" fill="white"/>
</clipPath>
</defs>
</svg>
