<svg width="20" height="20" viewBox="0 0 20 20" fill="none" xmlns="http://www.w3.org/2000/svg">
<path d="M10 7.5C9.33696 7.5 8.70107 7.76339 8.23223 8.23223C7.76339 8.70108 7.5 9.33696 7.5 10C7.5 10.663 7.76339 11.2989 8.23223 11.7678C8.70107 12.2366 9.33696 12.5 10 12.5C10.663 12.5 11.2989 12.2366 11.7678 11.7678C12.2366 11.2989 12.5 10.663 12.5 10C12.5 9.33696 12.2366 8.70108 11.7678 8.23223C11.2989 7.76339 10.663 7.5 10 7.5ZM10 5.83333C11.1051 5.83333 12.1649 6.27232 12.9463 7.05372C13.7277 7.83512 14.1667 8.89493 14.1667 10C14.1667 11.1051 13.7277 12.1649 12.9463 12.9463C12.1649 13.7277 11.1051 14.1667 10 14.1667C8.89493 14.1667 7.83512 13.7277 7.05372 12.9463C6.27232 12.1649 5.83333 11.1051 5.83333 10C5.83333 8.89493 6.27232 7.83512 7.05372 7.05372C7.83512 6.27232 8.89493 5.83333 10 5.83333V5.83333ZM15.4167 5.625C15.4167 5.90127 15.3069 6.16622 15.1116 6.36157C14.9162 6.55692 14.6513 6.66667 14.375 6.66667C14.0987 6.66667 13.8338 6.55692 13.6384 6.36157C13.4431 6.16622 13.3333 5.90127 13.3333 5.625C13.3333 5.34873 13.4431 5.08378 13.6384 4.88843C13.8338 4.69308 14.0987 4.58333 14.375 4.58333C14.6513 4.58333 14.9162 4.69308 15.1116 4.88843C15.3069 5.08378 15.4167 5.34873 15.4167 5.625V5.625ZM10 3.33333C7.93833 3.33333 7.60167 3.33917 6.6425 3.38167C5.98917 3.4125 5.55083 3.5 5.14416 3.65833C4.80384 3.78328 4.49618 3.98355 4.24416 4.24417C3.98334 4.49617 3.78279 4.80382 3.6575 5.14417C3.49916 5.5525 3.41166 5.99 3.38166 6.6425C3.33833 7.5625 3.33333 7.88417 3.33333 10C3.33333 12.0617 3.33916 12.3983 3.38166 13.3575C3.4125 14.01 3.5 14.4492 3.6575 14.855C3.79916 15.2175 3.96583 15.4783 4.2425 15.755C4.52333 16.035 4.78416 16.2025 5.1425 16.3408C5.55416 16.5 5.9925 16.5883 6.6425 16.6183C7.5625 16.6617 7.88417 16.6667 10 16.6667C12.0617 16.6667 12.3983 16.6608 13.3575 16.6183C14.0092 16.5875 14.4483 16.5 14.855 16.3425C15.1948 16.2169 15.5023 16.0171 15.755 15.7575C16.0358 15.4767 16.2033 15.2158 16.3417 14.8575C16.5 14.4467 16.5883 14.0075 16.6183 13.3575C16.6617 12.4375 16.6667 12.1158 16.6667 10C16.6667 7.93833 16.6608 7.60167 16.6183 6.6425C16.5875 5.99083 16.5 5.55083 16.3417 5.14417C16.2161 4.80417 16.0159 4.49663 15.7558 4.24417C15.5039 3.98321 15.1963 3.78264 14.8558 3.6575C14.4475 3.49917 14.0092 3.41167 13.3575 3.38167C12.4375 3.33833 12.1158 3.33333 10 3.33333ZM10 1.66667C12.2642 1.66667 12.5467 1.675 13.435 1.71667C14.3225 1.75833 14.9267 1.8975 15.4583 2.10417C16.0083 2.31583 16.4717 2.6025 16.935 3.065C17.3587 3.48158 17.6866 3.98549 17.8958 4.54167C18.1017 5.0725 18.2417 5.6775 18.2833 6.565C18.3225 7.45333 18.3333 7.73583 18.3333 10C18.3333 12.2642 18.325 12.5467 18.2833 13.435C18.2417 14.3225 18.1017 14.9267 17.8958 15.4583C17.6872 16.0148 17.3593 16.5189 16.935 16.935C16.5183 17.3586 16.0144 17.6865 15.4583 17.8958C14.9275 18.1017 14.3225 18.2417 13.435 18.2833C12.5467 18.3225 12.2642 18.3333 10 18.3333C7.73583 18.3333 7.45333 18.325 6.565 18.2833C5.6775 18.2417 5.07333 18.1017 4.54166 17.8958C3.98527 17.6871 3.48127 17.3591 3.065 16.935C2.64117 16.5185 2.31327 16.0146 2.10416 15.4583C1.8975 14.9275 1.75833 14.3225 1.71666 13.435C1.6775 12.5467 1.66666 12.2642 1.66666 10C1.66666 7.73583 1.675 7.45333 1.71666 6.565C1.75833 5.67667 1.8975 5.07333 2.10416 4.54167C2.31269 3.98515 2.64067 3.4811 3.065 3.065C3.48139 2.64103 3.98535 2.31311 4.54166 2.10417C5.07333 1.8975 5.67666 1.75833 6.565 1.71667C7.45333 1.6775 7.73583 1.66667 10 1.66667Z" fill="white"/>
</svg>
